<svg xmlns="http://www.w3.org/2000/svg" width="31.629" height="45.336" viewBox="0 0 31.629 45.336"><defs><style>.a{fill:#1a73e8;}.b{fill:#ea4335;}.c{fill:#4285f4;}.d{fill:#fbbc04;}.e{fill:#34a853;}</style></defs><path class="a" d="M35.353,7.734A15.846,15.846,0,0,0,18.46,12.646l7.471,6.281Z" transform="translate(-14.756 -7)"/><path class="b" d="M18.024,13.31a15.761,15.761,0,0,0-3.7,10.164,17.807,17.807,0,0,0,1.566,7.543L25.5,19.591Z" transform="translate(-14.32 -7.664)"/><path class="c" d="M31.455,16.858a6.052,6.052,0,0,1,4.617,9.958l9.413-11.193A15.823,15.823,0,0,0,36.224,7.83l-9.4,11.193a6.031,6.031,0,0,1,4.635-2.165" transform="translate(-15.636 -7.087)"/><path class="d" d="M30.323,30.272a6.046,6.046,0,0,1-4.635-9.932L16.07,31.766c1.646,3.642,4.375,6.567,7.185,10.254L34.94,28.133a6.041,6.041,0,0,1-4.617,2.138" transform="translate(-14.504 -8.404)"/><path class="e" d="M35.554,45.4c5.279-8.249,11.426-12,11.426-21.59A15.745,15.745,0,0,0,45.2,16.52L24.11,41.617c.895,1.172,1.8,2.416,2.675,3.794,3.2,4.957,2.317,7.927,4.384,7.927s1.181-2.979,4.384-7.936" transform="translate(-15.351 -8.002)"/></svg>