<svg xmlns="http://www.w3.org/2000/svg" xmlns:xlink="http://www.w3.org/1999/xlink" width="21.768" height="21.768" viewBox="0 0 21.768 21.768"><defs><style>.a{fill:url(#a);}</style><linearGradient id="a" x1="0.5" x2="0.5" y2="1" gradientUnits="objectBoundingBox"><stop offset="0" stop-color="#00d2ff"/><stop offset="1" stop-color="#3a7bd5"/></linearGradient></defs><g transform="translate(2.603 2.603)"><path class="a" d="M16.781,25.063a8.281,8.281,0,1,1,8.281-8.281A8.291,8.291,0,0,1,16.781,25.063Zm0-16.089a7.808,7.808,0,1,0,7.808,7.808A7.817,7.817,0,0,0,16.781,8.973Z" transform="translate(-8.5 -8.5)"/></g><g transform="translate(6.097 6.097)"><circle class="a" cx="5" cy="5" r="5" transform="translate(-0.213 -0.213)"/></g><g transform="translate(10.647)"><rect class="a" width="0.473" height="2.839"/><g transform="translate(0 18.929)"><rect class="a" width="0.473" height="2.839"/></g></g><g transform="translate(0 10.647)"><g transform="translate(18.929)"><rect class="a" width="2.839" height="0.473"/></g><rect class="a" width="2.839" height="0.473"/></g></svg>